<svg xmlns="http://www.w3.org/2000/svg" xmlns:xlink="http://www.w3.org/1999/xlink" version="1.1" style="shape-rendering:geometricPrecision; text-rendering:geometricPrecision; image-rendering:optimizeQuality; fill-rule:evenodd; clip-rule:evenodd" viewBox="23.48 10.48 119.03 90.02">
<g><path style="opacity:0.688" fill="#19686a" d="M 74.5,13.5 C 74.5,16.1667 74.5,18.8333 74.5,21.5C 74.1667,21.5 73.8333,21.5 73.5,21.5C 73.5,21.1667 73.5,20.8333 73.5,20.5C 74.0102,17.6122 73.3435,15.2789 71.5,13.5C 57.6766,12.5042 43.6766,12.1709 29.5,12.5C 29.5,12.1667 29.5,11.8333 29.5,11.5C 43.6607,10.3392 57.9941,10.1725 72.5,11C 73.756,11.4169 74.4226,12.2502 74.5,13.5 Z"/></g>
<g><path style="opacity:0.227" fill="#16464c" d="M 29.5,11.5 C 29.5,11.8333 29.5,12.1667 29.5,12.5C 28.2905,12.9321 27.2905,13.5987 26.5,14.5C 26.1667,14.5 25.8333,14.5 25.5,14.5C 26.0347,12.5544 27.368,11.5544 29.5,11.5 Z"/></g>
<g><path style="opacity:1" fill="#16c3b8" d="M 29.5,12.5 C 43.6766,12.1709 57.6766,12.5042 71.5,13.5C 57.8293,13.3334 44.1626,13.5001 30.5,14C 28.8807,14.2355 27.8807,15.0689 27.5,16.5C 27.1667,16.5 26.8333,16.5 26.5,16.5C 26.5,15.8333 26.5,15.1667 26.5,14.5C 27.2905,13.5987 28.2905,12.9321 29.5,12.5 Z"/></g>
<g><path style="opacity:1" fill="#1ae4d8" d="M 71.5,13.5 C 73.3435,15.2789 74.0102,17.6122 73.5,20.5C 58.1087,20.2071 42.7754,20.8738 27.5,22.5C 27.5,20.5 27.5,18.5 27.5,16.5C 27.8807,15.0689 28.8807,14.2355 30.5,14C 44.1626,13.5001 57.8293,13.3334 71.5,13.5 Z"/></g>
<g><path style="opacity:0.404" fill="#174e54" d="M 74.5,13.5 C 76.9715,16.2143 76.9715,18.8809 74.5,21.5C 74.5,18.8333 74.5,16.1667 74.5,13.5 Z"/></g>
<g><path style="opacity:1" fill="#1dd7d3" d="M 26.5,16.5 C 26.8333,16.5 27.1667,16.5 27.5,16.5C 27.5,18.5 27.5,20.5 27.5,22.5C 42.7754,20.8738 58.1087,20.2071 73.5,20.5C 73.5,20.8333 73.5,21.1667 73.5,21.5C 61.7044,22.1268 50.0378,22.7934 38.5,23.5C 37.5386,25.2646 37.2053,27.2646 37.5,29.5C 33.7307,29.244 30.0641,29.5773 26.5,30.5C 26.5,25.8333 26.5,21.1667 26.5,16.5 Z"/></g>
<g><path style="opacity:0.935" fill="#1a9e9e" d="M 73.5,21.5 C 73.1667,22.1667 72.8333,22.8333 72.5,23.5C 61.1667,23.5 49.8333,23.5 38.5,23.5C 50.0378,22.7934 61.7044,22.1268 73.5,21.5 Z"/></g>
<g><path style="opacity:0.067" fill="#185057" d="M 73.5,21.5 C 73.8333,21.5 74.1667,21.5 74.5,21.5C 74.5,22.8333 73.8333,23.5 72.5,23.5C 72.8333,22.8333 73.1667,22.1667 73.5,21.5 Z"/></g>
<g><path style="opacity:0.818" fill="#1f858d" d="M 127.5,33.5 C 128.833,34.5 130.167,35.5 131.5,36.5C 120.559,34.3252 109.559,33.9919 98.5,35.5C 98.8333,34.8333 99.1667,34.1667 99.5,33.5C 108.833,32.1667 118.167,32.1667 127.5,33.5 Z"/></g>
<g><path style="opacity:0.224" fill="#1b5761" d="M 127.5,33.5 C 130.754,33.7936 133.421,35.127 135.5,37.5C 134.041,37.5674 132.708,37.2341 131.5,36.5C 130.167,35.5 128.833,34.5 127.5,33.5 Z"/></g>
<g><path style="opacity:0.212" fill="#19444e" d="M 99.5,33.5 C 99.1667,34.1667 98.8333,34.8333 98.5,35.5C 98.1667,35.5 97.8333,35.5 97.5,35.5C 96.8333,35.5 96.1667,35.5 95.5,35.5C 96.5137,34.3263 97.847,33.6596 99.5,33.5 Z"/></g>
<g><path style="opacity:1" fill="#26d0db" d="M 131.5,36.5 C 132.708,37.2341 134.041,37.5674 135.5,37.5C 135.5,38.1667 135.5,38.8333 135.5,39.5C 135.586,40.4959 135.252,41.3292 134.5,42C 131.518,42.498 128.518,42.6646 125.5,42.5C 117.833,42.5 110.167,42.5 102.5,42.5C 99.1667,42.5 95.8333,42.5 92.5,42.5C 92.5,41.5 92.5,40.5 92.5,39.5C 94.7488,38.9202 96.4154,37.5869 97.5,35.5C 97.8333,35.5 98.1667,35.5 98.5,35.5C 109.559,33.9919 120.559,34.3252 131.5,36.5 Z"/></g>
<g><path style="opacity:1" fill="#21a2ad" d="M 95.5,35.5 C 96.1667,35.5 96.8333,35.5 97.5,35.5C 96.4154,37.5869 94.7488,38.9202 92.5,39.5C 93.5,38.1667 94.5,36.8333 95.5,35.5 Z"/></g>
<g><path style="opacity:0.168" fill="#1a3a49" d="M 25.5,14.5 C 25.5,15.8333 25.5,17.1667 25.5,18.5C 24.5023,43.6612 24.1689,68.9945 24.5,94.5C 23.3365,68.6699 23.1699,42.6699 24,16.5C 24.2784,15.5842 24.7784,14.9175 25.5,14.5 Z"/></g>
<g><path style="opacity:1" fill="#2ac5d8" d="M 135.5,39.5 C 136.5,39.8333 137.167,40.5 137.5,41.5C 139.252,45.2273 139.919,49.2273 139.5,53.5C 139.5,53.8333 139.5,54.1667 139.5,54.5C 136.5,54.5 133.5,54.5 130.5,54.5C 130.88,52.302 130.213,50.6354 128.5,49.5C 127.925,47.5887 126.925,45.922 125.5,44.5C 125.5,43.8333 125.5,43.1667 125.5,42.5C 128.518,42.6646 131.518,42.498 134.5,42C 135.252,41.3292 135.586,40.4959 135.5,39.5 Z"/></g>
<g><path style="opacity:1" fill="#2ac7d9" d="M 92.5,39.5 C 92.5,40.5 92.5,41.5 92.5,42.5C 95.8333,42.5 99.1667,42.5 102.5,42.5C 101.89,43.391 101.557,44.391 101.5,45.5C 101.167,46.1667 100.833,46.8333 100.5,47.5C 99.6618,47.8417 99.3284,48.5084 99.5,49.5C 95.8815,50.2436 92.2148,50.577 88.5,50.5C 88.4767,46.2361 89.8101,42.5695 92.5,39.5 Z"/></g>
<g><path style="opacity:0.958" fill="#25aab9" d="M 102.5,42.5 C 110.167,42.5 117.833,42.5 125.5,42.5C 125.5,43.1667 125.5,43.8333 125.5,44.5C 124.833,44.5 124.167,44.5 123.5,44.5C 117.013,43.346 110.346,43.1794 103.5,44C 102.956,44.7172 102.289,45.2172 101.5,45.5C 101.557,44.391 101.89,43.391 102.5,42.5 Z"/></g>
<g><path style="opacity:0.204" fill="#1b4b57" d="M 135.5,37.5 C 137.914,38.9108 139.581,40.9108 140.5,43.5C 139.5,42.8333 138.5,42.1667 137.5,41.5C 137.167,40.5 136.5,39.8333 135.5,39.5C 135.5,38.8333 135.5,38.1667 135.5,37.5 Z"/></g>
<g><path style="opacity:0.294" fill="#1c5563" d="M 123.5,44.5 C 122.833,44.5 122.167,44.5 121.5,44.5C 116.489,44.3341 111.489,44.5007 106.5,45C 104.093,45.2572 102.427,46.4238 101.5,48.5C 101.167,48.5 100.833,48.5 100.5,48.5C 100.5,48.1667 100.5,47.8333 100.5,47.5C 100.833,46.8333 101.167,46.1667 101.5,45.5C 102.289,45.2172 102.956,44.7172 103.5,44C 110.346,43.1794 117.013,43.346 123.5,44.5 Z"/></g>
<g><path style="opacity:0.431" fill="#1b4452" d="M 66.5,57.5 C 66.8016,54.9407 66.4682,52.6074 65.5,50.5C 62.8689,45.8087 58.8689,44.3087 53.5,46C 51.8043,47.1764 50.1376,48.343 48.5,49.5C 54.4136,41.6205 60.5803,41.6205 67,49.5C 67.8007,52.367 67.6341,55.0336 66.5,57.5 Z"/></g>
<g><path style="opacity:0.416" fill="#1b4351" d="M 121.5,44.5 C 122.167,44.5 122.833,44.5 123.5,44.5C 124.167,44.5 124.833,44.5 125.5,44.5C 126.925,45.922 127.925,47.5887 128.5,49.5C 128.259,51.8984 128.926,53.8984 130.5,55.5C 130.5,55.8333 130.5,56.1667 130.5,56.5C 127.47,54.4421 125.97,51.4421 126,47.5C 124.591,46.2189 123.091,45.2189 121.5,44.5 Z"/></g>
<g><path style="opacity:0.431" fill="#1f5a6a" d="M 95.5,35.5 C 94.5,36.8333 93.5,38.1667 92.5,39.5C 89.8101,42.5695 88.4767,46.2361 88.5,50.5C 88.5,52.5 88.5,54.5 88.5,56.5C 88.1706,59.2282 88.8372,61.5615 90.5,63.5C 90.5,64.1667 90.5,64.8333 90.5,65.5C 88.3057,63.7786 87.139,61.4453 87,58.5C 85.9661,51.831 86.9661,45.4977 90,39.5C 91.451,37.5359 93.2843,36.2026 95.5,35.5 Z"/></g>
<g><path style="opacity:0.647" fill="#217888" d="M 137.5,41.5 C 138.5,42.1667 139.5,42.8333 140.5,43.5C 140.5,43.8333 140.5,44.1667 140.5,44.5C 140.81,47.7131 140.477,50.7131 139.5,53.5C 139.919,49.2273 139.252,45.2273 137.5,41.5 Z"/></g>
<g><path style="opacity:1" fill="#28a9bd" d="M 65.5,50.5 C 65.5,50.8333 65.5,51.1667 65.5,51.5C 63.9519,51.1788 63.2852,50.1788 63.5,48.5C 61.2257,48.2849 59.059,47.6182 57,46.5C 53.8032,47.4941 51.6365,49.4941 50.5,52.5C 49.5829,54.6618 49.5829,56.9952 50.5,59.5C 49.7784,59.0825 49.2784,58.4158 49,57.5C 48.5026,54.854 48.3359,52.1873 48.5,49.5C 50.1376,48.343 51.8043,47.1764 53.5,46C 58.8689,44.3087 62.8689,45.8087 65.5,50.5 Z"/></g>
<g><path style="opacity:1" fill="#2ec4de" d="M 65.5,51.5 C 65.5,53.1667 65.5,54.8333 65.5,56.5C 60.8499,57.7195 56.1833,57.7195 51.5,56.5C 50.7542,55.2638 50.4208,53.9305 50.5,52.5C 51.6365,49.4941 53.8032,47.4941 57,46.5C 59.059,47.6182 61.2257,48.2849 63.5,48.5C 63.2852,50.1788 63.9519,51.1788 65.5,51.5 Z"/></g>
<g><path style="opacity:1" fill="#2fc3dd" d="M 99.5,49.5 C 99.5,52.5 99.5,55.5 99.5,58.5C 95.873,57.7536 92.2064,57.0869 88.5,56.5C 88.5,54.5 88.5,52.5 88.5,50.5C 92.2148,50.577 95.8815,50.2436 99.5,49.5 Z"/></g>
<g><path style="opacity:0.371" fill="#1d4b5b" d="M 140.5,44.5 C 144.197,54.4531 140.864,58.4531 130.5,56.5C 130.5,56.1667 130.5,55.8333 130.5,55.5C 133.713,55.81 136.713,55.4767 139.5,54.5C 139.5,54.1667 139.5,53.8333 139.5,53.5C 140.477,50.7131 140.81,47.7131 140.5,44.5 Z"/></g>
<g><path style="opacity:0.479" fill="#237589" d="M 100.5,47.5 C 100.5,47.8333 100.5,48.1667 100.5,48.5C 100.323,52.2343 100.656,55.9009 101.5,59.5C 100.833,59.1667 100.167,58.8333 99.5,58.5C 99.5,55.5 99.5,52.5 99.5,49.5C 99.3284,48.5084 99.6618,47.8417 100.5,47.5 Z"/></g>
<g><path style="opacity:0.696" fill="#236f84" d="M 65.5,50.5 C 66.4682,52.6074 66.8016,54.9407 66.5,57.5C 66.2624,59.4044 65.2624,60.7377 63.5,61.5C 64.1667,59.8333 64.8333,58.1667 65.5,56.5C 65.5,54.8333 65.5,53.1667 65.5,51.5C 65.5,51.1667 65.5,50.8333 65.5,50.5 Z"/></g>
<g><path style="opacity:1" fill="#2a9eb6" d="M 128.5,49.5 C 130.213,50.6354 130.88,52.302 130.5,54.5C 133.5,54.5 136.5,54.5 139.5,54.5C 136.713,55.4767 133.713,55.81 130.5,55.5C 128.926,53.8984 128.259,51.8984 128.5,49.5 Z"/></g>
<g><path style="opacity:1" fill="#30b6d5" d="M 50.5,52.5 C 50.4208,53.9305 50.7542,55.2638 51.5,56.5C 56.1833,57.7195 60.8499,57.7195 65.5,56.5C 64.8333,58.1667 64.1667,59.8333 63.5,61.5C 62.1667,61.8333 60.8333,62.1667 59.5,62.5C 57.0971,62.552 54.7638,62.2186 52.5,61.5C 51.8333,61.5 51.1667,61.5 50.5,61.5C 50.5,60.8333 50.5,60.1667 50.5,59.5C 49.5829,56.9952 49.5829,54.6618 50.5,52.5 Z"/></g>
<g><path style="opacity:1" fill="#32badb" d="M 88.5,56.5 C 92.2064,57.0869 95.873,57.7536 99.5,58.5C 100.167,58.8333 100.833,59.1667 101.5,59.5C 102.5,59.8333 103.167,60.5 103.5,61.5C 110.321,62.3285 117.321,62.8285 124.5,63C 113.172,63.4999 101.838,63.6665 90.5,63.5C 88.8372,61.5615 88.1706,59.2282 88.5,56.5 Z"/></g>
<g><path style="opacity:0.149" fill="#193644" d="M 38.5,23.5 C 49.8333,23.5 61.1667,23.5 72.5,23.5C 61.7648,24.177 50.9315,24.8436 40,25.5C 39.5,46.164 39.3334,66.8306 39.5,87.5C 39.1667,87.5 38.8333,87.5 38.5,87.5C 38.5,66.1667 38.5,44.8333 38.5,23.5 Z"/></g>
<g><path style="opacity:0.357" fill="#1d4354" d="M 48.5,49.5 C 48.3359,52.1873 48.5026,54.854 49,57.5C 49.2784,58.4158 49.7784,59.0825 50.5,59.5C 50.5,60.1667 50.5,60.8333 50.5,61.5C 47.9893,59.556 46.656,56.8894 46.5,53.5C 46.6682,51.8295 47.3349,50.4961 48.5,49.5 Z"/></g>
<g><path style="opacity:0.454" fill="#1e4759" d="M 100.5,48.5 C 100.833,48.5 101.167,48.5 101.5,48.5C 101.336,51.1873 101.503,53.854 102,56.5C 102.5,57.6667 103.333,58.5 104.5,59C 111.5,59.3333 118.5,59.6667 125.5,60C 128.599,60.3874 131.266,61.5541 133.5,63.5C 123.696,61.6719 113.696,61.0052 103.5,61.5C 103.167,60.5 102.5,59.8333 101.5,59.5C 100.656,55.9009 100.323,52.2343 100.5,48.5 Z"/></g>
<g><path style="opacity:0.478" fill="#1d4457" d="M 50.5,61.5 C 51.1667,61.5 51.8333,61.5 52.5,61.5C 52.8333,62.1667 53.1667,62.8333 53.5,63.5C 51.9731,63.573 50.9731,62.9063 50.5,61.5 Z"/></g>
<g><path style="opacity:0.984" fill="#287e9a" d="M 52.5,61.5 C 54.7638,62.2186 57.0971,62.552 59.5,62.5C 57.7354,63.4614 55.7354,63.7947 53.5,63.5C 53.1667,62.8333 52.8333,62.1667 52.5,61.5 Z"/></g>
<g><path style="opacity:1" fill="#35b3da" d="M 103.5,61.5 C 113.696,61.0052 123.696,61.6719 133.5,63.5C 133.782,64.7777 134.449,65.7777 135.5,66.5C 136.028,67.8474 136.195,69.1807 136,70.5C 125.735,69.1712 115.569,69.1712 105.5,70.5C 101.95,69.1224 98.2829,68.1224 94.5,67.5C 93.4863,66.3263 92.153,65.6596 90.5,65.5C 90.5,64.8333 90.5,64.1667 90.5,63.5C 101.838,63.6665 113.172,63.4999 124.5,63C 117.321,62.8285 110.321,62.3285 103.5,61.5 Z"/></g>
<g><path style="opacity:1" fill="#309ebf" d="M 25.5,14.5 C 25.8333,14.5 26.1667,14.5 26.5,14.5C 26.5,15.1667 26.5,15.8333 26.5,16.5C 26.5,21.1667 26.5,25.8333 26.5,30.5C 26.5,33.1667 26.5,35.8333 26.5,38.5C 26.5,43.1667 26.5,47.8333 26.5,52.5C 26.7244,56.1788 27.0578,59.8455 27.5,63.5C 30.8333,63.5 34.1667,63.5 37.5,63.5C 37.5,59.1667 37.5,54.8333 37.5,50.5C 37.5,47.8333 37.5,45.1667 37.5,42.5C 37.5,38.1667 37.5,33.8333 37.5,29.5C 37.2053,27.2646 37.5386,25.2646 38.5,23.5C 38.5,44.8333 38.5,66.1667 38.5,87.5C 38.5,87.8333 38.5,88.1667 38.5,88.5C 38.1667,88.5 37.8333,88.5 37.5,88.5C 37.5,84.8333 37.5,81.1667 37.5,77.5C 37.5,74.8333 37.5,72.1667 37.5,69.5C 33.6494,70.0291 30.1494,69.3625 27,67.5C 26.5065,69.1341 26.3398,70.8008 26.5,72.5C 25.5032,54.6744 25.1699,36.6744 25.5,18.5C 25.5,17.1667 25.5,15.8333 25.5,14.5 Z"/></g>
<g><path style="opacity:1" fill="#31c0de" d="M 37.5,50.5 C 37.5,54.8333 37.5,59.1667 37.5,63.5C 34.1667,63.5 30.8333,63.5 27.5,63.5C 27.0578,59.8455 26.7244,56.1788 26.5,52.5C 29.8309,50.7024 33.4975,50.0357 37.5,50.5 Z"/></g>
<g><path style="opacity:1" fill="#2acadc" d="M 26.5,38.5 C 27.4345,39.5676 27.7678,40.901 27.5,42.5C 30.8333,42.5 34.1667,42.5 37.5,42.5C 37.5,45.1667 37.5,47.8333 37.5,50.5C 33.4975,50.0357 29.8309,50.7024 26.5,52.5C 26.5,47.8333 26.5,43.1667 26.5,38.5 Z"/></g>
<g><path style="opacity:1" fill="#25d3dc" d="M 37.5,29.5 C 37.5,33.8333 37.5,38.1667 37.5,42.5C 34.1667,42.5 30.8333,42.5 27.5,42.5C 27.7678,40.901 27.4345,39.5676 26.5,38.5C 26.5,35.8333 26.5,33.1667 26.5,30.5C 30.0641,29.5773 33.7307,29.244 37.5,29.5 Z"/></g>
<g><path style="opacity:0.224" fill="#1d4355" d="M 63.5,61.5 C 62.9423,62.7899 61.9423,63.6232 60.5,64C 57.9615,64.7958 55.6282,64.6291 53.5,63.5C 55.7354,63.7947 57.7354,63.4614 59.5,62.5C 60.8333,62.1667 62.1667,61.8333 63.5,61.5 Z"/></g>
<g><path style="opacity:0.341" fill="#1e4559" d="M 133.5,63.5 C 136.833,64.8333 139.167,67.1667 140.5,70.5C 139.5,69.8333 138.5,69.1667 137.5,68.5C 137.167,67.5 136.5,66.8333 135.5,66.5C 134.449,65.7777 133.782,64.7777 133.5,63.5 Z"/></g>
<g><path style="opacity:0.427" fill="#23586f" d="M 90.5,65.5 C 92.153,65.6596 93.4863,66.3263 94.5,67.5C 94.8333,68.1667 95.1667,68.8333 95.5,69.5C 93.2512,68.9202 91.5846,67.5869 90.5,65.5 Z"/></g>
<g><path style="opacity:1" fill="#3ab1e0" d="M 37.5,77.5 C 34.1667,77.5 30.8333,77.5 27.5,77.5C 27.7373,76.209 27.404,75.209 26.5,74.5C 26.5,73.8333 26.5,73.1667 26.5,72.5C 26.3398,70.8008 26.5065,69.1341 27,67.5C 30.1494,69.3625 33.6494,70.0291 37.5,69.5C 37.5,72.1667 37.5,74.8333 37.5,77.5 Z"/></g>
<g><path style="opacity:1" fill="#39b0de" d="M 135.5,66.5 C 136.5,66.8333 137.167,67.5 137.5,68.5C 138.63,70.3146 139.296,72.3146 139.5,74.5C 139.5,75.5 139.5,76.5 139.5,77.5C 135.821,77.9396 132.488,77.273 129.5,75.5C 128.764,73.7706 127.43,72.7706 125.5,72.5C 119.25,70.5411 112.584,69.8745 105.5,70.5C 115.569,69.1712 125.735,69.1712 136,70.5C 136.195,69.1807 136.028,67.8474 135.5,66.5 Z"/></g>
<g><path style="opacity:0.789" fill="#2f8db0" d="M 94.5,67.5 C 98.2829,68.1224 101.95,69.1224 105.5,70.5C 112.584,69.8745 119.25,70.5411 125.5,72.5C 124.833,72.5 124.167,72.5 123.5,72.5C 114.211,71.981 104.878,70.981 95.5,69.5C 95.1667,68.8333 94.8333,68.1667 94.5,67.5 Z"/></g>
<g><path style="opacity:0.15" fill="#1f4358" d="M 95.5,69.5 C 104.878,70.981 114.211,71.981 123.5,72.5C 115.493,72.6664 107.493,72.4997 99.5,72C 97.9336,71.3918 96.6002,70.5585 95.5,69.5 Z"/></g>
<g><path style="opacity:0.569" fill="#27607c" d="M 25.5,18.5 C 25.1699,36.6744 25.5032,54.6744 26.5,72.5C 26.5,73.1667 26.5,73.8333 26.5,74.5C 26.5,79.1667 26.5,83.8333 26.5,88.5C 26.5,91.5 26.5,94.5 26.5,97.5C 26.8333,98.1667 27.1667,98.8333 27.5,99.5C 25.2591,98.7002 24.2591,97.0336 24.5,94.5C 24.1689,68.9945 24.5023,43.6612 25.5,18.5 Z"/></g>
<g><path style="opacity:0.392" fill="#224760" d="M 100.5,80.5 C 100.5,82.5 100.5,84.5 100.5,86.5C 100.167,86.5 99.8333,86.5 99.5,86.5C 99.6633,84.1432 99.4966,81.8098 99,79.5C 98.6174,78.944 98.1174,78.6107 97.5,78.5C 96.2233,77.1024 94.5566,76.4357 92.5,76.5C 90.6455,76.3402 89.3121,77.0069 88.5,78.5C 87.5206,81.6248 87.1872,84.9581 87.5,88.5C 86.3567,85.0242 86.1901,81.3575 87,77.5C 92.7821,72.9558 97.2821,73.9558 100.5,80.5 Z"/></g>
<g><path style="opacity:1" fill="#3590bc" d="M 97.5,78.5 C 94.5,78.5 91.5,78.5 88.5,78.5C 89.3121,77.0069 90.6455,76.3402 92.5,76.5C 94.5566,76.4357 96.2233,77.1024 97.5,78.5 Z"/></g>
<g><path style="opacity:0.682" fill="#275b78" d="M 137.5,68.5 C 138.5,69.1667 139.5,69.8333 140.5,70.5C 141.935,73.5499 142.602,76.8832 142.5,80.5C 142.495,82.6965 142.162,84.6965 141.5,86.5C 141.167,86.5 140.833,86.5 140.5,86.5C 140.817,82.2984 140.483,78.2984 139.5,74.5C 139.296,72.3146 138.63,70.3146 137.5,68.5 Z"/></g>
<g><path style="opacity:0.281" fill="#25536e" d="M 123.5,72.5 C 124.167,72.5 124.833,72.5 125.5,72.5C 127.43,72.7706 128.764,73.7706 129.5,75.5C 129.658,78.9023 129.324,82.2356 128.5,85.5C 128.027,86.9063 127.027,87.573 125.5,87.5C 127.463,84.482 127.963,81.1487 127,77.5C 126.743,75.0935 125.576,73.4268 123.5,72.5 Z"/></g>
<g><path style="opacity:1" fill="#3ca1d5" d="M 139.5,74.5 C 140.483,78.2984 140.817,82.2984 140.5,86.5C 140.672,87.4916 140.338,88.1583 139.5,88.5C 139.662,86.4727 139.495,84.4727 139,82.5C 135.362,83.1168 131.862,84.1168 128.5,85.5C 129.324,82.2356 129.658,78.9023 129.5,75.5C 132.488,77.273 135.821,77.9396 139.5,77.5C 139.5,76.5 139.5,75.5 139.5,74.5 Z"/></g>
<g><path style="opacity:0.055" fill="#182230" d="M 100.5,80.5 C 101.285,82.3736 101.952,84.3736 102.5,86.5C 101.833,86.5 101.167,86.5 100.5,86.5C 100.5,84.5 100.5,82.5 100.5,80.5 Z"/></g>
<g><path style="opacity:1" fill="#41a6e1" d="M 26.5,74.5 C 27.404,75.209 27.7373,76.209 27.5,77.5C 30.8333,77.5 34.1667,77.5 37.5,77.5C 37.5,81.1667 37.5,84.8333 37.5,88.5C 37.5,88.8333 37.5,89.1667 37.5,89.5C 33.7307,89.756 30.0641,89.4227 26.5,88.5C 26.5,83.8333 26.5,79.1667 26.5,74.5 Z"/></g>
<g><path style="opacity:1" fill="#3fa1da" d="M 88.5,78.5 C 91.5,78.5 94.5,78.5 97.5,78.5C 98.1174,78.6107 98.6174,78.944 99,79.5C 99.4966,81.8098 99.6633,84.1432 99.5,86.5C 99.5,87.5 99.5,88.5 99.5,89.5C 95.8333,89.5 92.1667,89.5 88.5,89.5C 88.5,88.8333 88.1667,88.5 87.5,88.5C 87.1872,84.9581 87.5206,81.6248 88.5,78.5 Z"/></g>
<g><path style="opacity:1" fill="#42a2df" d="M 139.5,88.5 C 138.64,90.2879 137.64,91.9545 136.5,93.5C 136.5,92.5 136.5,91.5 136.5,90.5C 132.833,90.5 129.167,90.5 125.5,90.5C 125.5,90.1667 125.5,89.8333 125.5,89.5C 125.5,88.8333 125.5,88.1667 125.5,87.5C 127.027,87.573 128.027,86.9063 128.5,85.5C 131.862,84.1168 135.362,83.1168 139,82.5C 139.495,84.4727 139.662,86.4727 139.5,88.5 Z"/></g>
<g><path style="opacity:0.194" fill="#254764" d="M 38.5,87.5 C 38.8333,87.5 39.1667,87.5 39.5,87.5C 51.1714,87.3335 62.8381,87.5001 74.5,88C 77.0684,89.1271 78.4018,91.1271 78.5,94C 78.3868,96.3987 77.3868,98.2321 75.5,99.5C 75.5,99.1667 75.5,98.8333 75.5,98.5C 75.5,98.1667 75.5,97.8333 75.5,97.5C 76.8143,95.1047 76.8143,92.6047 75.5,90C 62.9932,89.8308 50.6599,89.3308 38.5,88.5C 38.5,88.1667 38.5,87.8333 38.5,87.5 Z"/></g>
<g><path style="opacity:0.282" fill="#244663" d="M 100.5,86.5 C 101.167,86.5 101.833,86.5 102.5,86.5C 110.015,88.7872 117.682,89.1205 125.5,87.5C 125.5,88.1667 125.5,88.8333 125.5,89.5C 117.414,89.8005 109.414,89.4672 101.5,88.5C 101.167,87.8333 100.833,87.1667 100.5,86.5 Z"/></g>
<g><path style="opacity:1" fill="#3d8bc4" d="M 37.5,88.5 C 37.8333,88.5 38.1667,88.5 38.5,88.5C 50.6599,89.3308 62.9932,89.8308 75.5,90C 76.8143,92.6047 76.8143,95.1047 75.5,97.5C 75.5,97.1667 75.5,96.8333 75.5,96.5C 75.8588,94.2341 75.1922,92.4007 73.5,91C 61.3263,90.8307 49.3263,90.3307 37.5,89.5C 37.5,89.1667 37.5,88.8333 37.5,88.5 Z"/></g>
<g><path style="opacity:0.282" fill="#254663" d="M 87.5,88.5 C 88.1667,88.5 88.5,88.8333 88.5,89.5C 89.8333,91.5 91.1667,93.5 92.5,95.5C 91.5041,95.5858 90.6708,95.2524 90,94.5C 88.4412,92.7834 87.6079,90.7834 87.5,88.5 Z"/></g>
<g><path style="opacity:0.905" fill="#3b89c0" d="M 101.5,88.5 C 109.414,89.4672 117.414,89.8005 125.5,89.5C 125.5,89.8333 125.5,90.1667 125.5,90.5C 117.097,91.1335 109.097,90.4668 101.5,88.5 Z"/></g>
<g><path style="opacity:1" fill="#469fe3" d="M 26.5,88.5 C 30.0641,89.4227 33.7307,89.756 37.5,89.5C 49.3263,90.3307 61.3263,90.8307 73.5,91C 75.1922,92.4007 75.8588,94.2341 75.5,96.5C 59.6578,96.1704 43.9911,96.5037 28.5,97.5C 27.8333,97.5 27.1667,97.5 26.5,97.5C 26.5,94.5 26.5,91.5 26.5,88.5 Z"/></g>
<g><path style="opacity:1" fill="#469de2" d="M 99.5,86.5 C 99.8333,86.5 100.167,86.5 100.5,86.5C 100.833,87.1667 101.167,87.8333 101.5,88.5C 109.097,90.4668 117.097,91.1335 125.5,90.5C 129.167,90.5 132.833,90.5 136.5,90.5C 136.5,91.5 136.5,92.5 136.5,93.5C 134.143,95.1988 131.81,96.8655 129.5,98.5C 119.828,98.6665 110.161,98.4998 100.5,98C 98.7128,96.6813 96.7128,95.848 94.5,95.5C 93.8333,95.5 93.1667,95.5 92.5,95.5C 91.1667,93.5 89.8333,91.5 88.5,89.5C 92.1667,89.5 95.8333,89.5 99.5,89.5C 99.5,88.5 99.5,87.5 99.5,86.5 Z"/></g>
<g><path style="opacity:0.412" fill="#2a5276" d="M 140.5,86.5 C 140.833,86.5 141.167,86.5 141.5,86.5C 140.281,93.3859 136.281,97.7193 129.5,99.5C 129.5,99.1667 129.5,98.8333 129.5,98.5C 131.81,96.8655 134.143,95.1988 136.5,93.5C 137.64,91.9545 138.64,90.2879 139.5,88.5C 140.338,88.1583 140.672,87.4916 140.5,86.5 Z"/></g>
<g><path style="opacity:1" fill="#489be3" d="M 75.5,96.5 C 75.5,96.8333 75.5,97.1667 75.5,97.5C 75.5,97.8333 75.5,98.1667 75.5,98.5C 59.6578,98.8296 43.9911,98.4963 28.5,97.5C 43.9911,96.5037 59.6578,96.1704 75.5,96.5 Z"/></g>
<g><path style="opacity:0.816" fill="#366a9d" d="M 26.5,97.5 C 27.1667,97.5 27.8333,97.5 28.5,97.5C 43.9911,98.4963 59.6578,98.8296 75.5,98.5C 75.5,98.8333 75.5,99.1667 75.5,99.5C 59.5,100.833 43.5,100.833 27.5,99.5C 27.1667,98.8333 26.8333,98.1667 26.5,97.5 Z"/></g>
<g><path style="opacity:0.431" fill="#2b5176" d="M 92.5,95.5 C 93.1667,95.5 93.8333,95.5 94.5,95.5C 96.1667,96.8333 97.8333,98.1667 99.5,99.5C 96.4542,99.2753 94.1209,97.942 92.5,95.5 Z"/></g>
<g><path style="opacity:0.776" fill="#346798" d="M 94.5,95.5 C 96.7128,95.848 98.7128,96.6813 100.5,98C 110.161,98.4998 119.828,98.6665 129.5,98.5C 129.5,98.8333 129.5,99.1667 129.5,99.5C 119.402,100.817 109.402,100.817 99.5,99.5C 97.8333,98.1667 96.1667,96.8333 94.5,95.5 Z"/></g>
</svg>